<svg id="Layer_1" enable-background="new 0 0 511.994 511.994" height="512" viewBox="0 0 511.994 511.994" width="512" xmlns="http://www.w3.org/2000/svg"><g><path d="m458.697 31.155-66.504-.468-344.88 11.602c-21.602 48.228-39.112 97.44-39.112 157.268 0 172.554 106.383 312.436 247.033 312.436s248.56-139.882 248.56-312.436c-.001-58.807-20.676-117.058-45.097-168.402z" fill="#f7f7f8"/><path d="m392.193 30.699-136.196 4.581v476.713c140.275-.507 247.796-140.184 247.796-312.424 0-58.808-20.675-117.058-45.096-168.403z" fill="#e2e2ea"/><g><path d="m293.418 290.82c-3.767.001-7.547-1.323-10.589-4.017-6.609-5.851-7.224-15.953-1.371-22.562l16.428-18.555-101.606-106.57c-6.092-6.389-5.85-16.506.539-22.597s16.506-5.851 22.597.539l111.74 117.2c5.731 6.01 5.903 15.407.399 21.625l-26.164 29.551c-3.158 3.565-7.555 5.386-11.973 5.386z" fill="#e2e2ea"/></g><ellipse cx="436.173" cy="158.468" fill="#cfc8d8" rx="15.465" ry="15.334"/><ellipse cx="202.736" cy="269.803" fill="#cfc8d8" rx="15.465" ry="15.334"/><ellipse cx="143.532" cy="241.88" fill="#e2e2ea" rx="15.465" ry="15.334"/><path d="m255.997 155.425v46.326l41.889 43.936-16.428 18.555c-5.852 6.609-5.237 16.711 1.372 22.562 3.042 2.694 6.822 4.017 10.589 4.017 4.417 0 8.815-1.821 11.973-5.388l26.164-29.551c5.505-6.218 5.332-15.615-.398-21.625z" fill="#cfc8d8"/><path d="m455.546 28.43-153.371-27.583c-6.401-1.502-13.11-.998-19.215 1.444l-65.778 26.311c-6.526 2.61-13.702 3.127-20.534 1.477l-56.387-13.611c-5.971-1.441-12.222-1.232-18.084.605l-72.226 22.637c-3.078.965-4.042 4.847-1.772 7.139l42.578 42.997c4.7 4.746 11.303 7.096 17.945 6.387l47.248-5.048c9.629-1.029 18.795 4.368 22.568 13.287l12.693 30.007c2.131 5.037 7.882 7.465 12.978 5.478l75.382-29.395c7.157-2.791 15.252-1.641 21.349 3.033l25.696 19.7c8.543 6.549 20.572 5.944 28.415-1.428l102.59-96.443c2.443-2.299 1.227-6.4-2.075-6.994z" fill="#cfc8d8"/><path d="m455.546 28.43-153.371-27.583c-6.401-1.502-13.11-.998-19.215 1.444l-26.964 10.785v106.678l23.574-9.193c7.157-2.791 15.252-1.641 21.349 3.033l25.696 19.7c8.542 6.549 20.572 5.944 28.415-1.428l102.59-96.443c2.444-2.298 1.228-6.399-2.074-6.993z" fill="#9a8da8"/></g></svg>